<svg width="18" height="14" viewBox="0 0 18 14" fill="none" xmlns="http://www.w3.org/2000/svg">
<path d="M15.5128 2.47563H6.83789V2.03483C6.8321 1.72656 6.70466 1.43308 6.48336 1.21839C6.26206 1.0037 5.96486 0.885204 5.65655 0.888749H1.83481C1.525 0.888749 1.22789 1.01182 1.00882 1.23088C0.789757 1.44995 0.666687 1.74707 0.666687 2.05687L0.666687 12.0674C0.667853 12.3765 0.791437 12.6725 1.01038 12.8906C1.22932 13.1087 1.52577 13.2312 1.83481 13.2312H5.65655H5.80642H15.504C15.9896 13.23 16.4549 13.0363 16.7978 12.6925C17.1408 12.3488 17.3334 11.883 17.3334 11.3974V4.30495C17.3322 3.82166 17.1403 3.35837 16.7994 3.01581C16.4585 2.67324 15.9961 2.47911 15.5128 2.47563ZM16.0198 11.393C16.0209 11.4603 16.0087 11.5272 15.9837 11.5897C15.9588 11.6522 15.9216 11.7092 15.8744 11.7572C15.8273 11.8052 15.771 11.8433 15.7089 11.8693C15.6468 11.8954 15.5802 11.9088 15.5128 11.9088H2.61062C2.47577 11.9076 2.34684 11.8532 2.2519 11.7574C2.15696 11.6617 2.10369 11.5323 2.1037 11.3974V4.30495C2.10485 4.17087 2.15862 4.0426 2.25344 3.94778C2.34826 3.85296 2.47653 3.79918 2.61062 3.79803H15.5128C15.6473 3.79803 15.7762 3.85144 15.8713 3.94651C15.9664 4.04157 16.0198 4.17051 16.0198 4.30495V11.393Z" fill="#242424"/>
<path d="M15.5128 2.47563H6.83789V2.03483C6.8321 1.72656 6.70466 1.43308 6.48336 1.21839C6.26206 1.0037 5.96486 0.885204 5.65655 0.888749H1.83481C1.525 0.888749 1.22789 1.01182 1.00882 1.23088C0.789757 1.44995 0.666687 1.74707 0.666687 2.05687L0.666687 12.0674C0.667853 12.3765 0.791437 12.6725 1.01038 12.8906C1.22932 13.1087 1.52577 13.2312 1.83481 13.2312H5.65655H5.80642H15.504C15.9896 13.23 16.4549 13.0363 16.7978 12.6925C17.1408 12.3488 17.3334 11.883 17.3334 11.3974V4.30495C17.3322 3.82166 17.1403 3.35837 16.7994 3.01581C16.4585 2.67324 15.9961 2.47911 15.5128 2.47563ZM16.0198 11.393C16.0209 11.4603 16.0087 11.5272 15.9837 11.5897C15.9588 11.6522 15.9216 11.7092 15.8744 11.7572C15.8273 11.8052 15.771 11.8433 15.7089 11.8693C15.6468 11.8954 15.5802 11.9088 15.5128 11.9088H2.61062C2.47577 11.9076 2.34684 11.8532 2.2519 11.7574C2.15696 11.6617 2.10369 11.5323 2.1037 11.3974V4.30495C2.10485 4.17087 2.15862 4.0426 2.25344 3.94778C2.34826 3.85296 2.47653 3.79918 2.61062 3.79803H15.5128C15.6473 3.79803 15.7762 3.85144 15.8713 3.94651C15.9664 4.04157 16.0198 4.17051 16.0198 4.30495V11.393Z" fill="black" fill-opacity="0.2"/>
</svg>
