<svg width="45" height="45" viewBox="0 0 45 45" fill="none" xmlns="http://www.w3.org/2000/svg">
<g filter="url(#filter0_d_776_19211)">
<circle cx="21" cy="18.082" r="12" fill="#555551"/>
<path fill-rule="evenodd" clip-rule="evenodd" d="M31.2426 18C31.2426 23.7021 26.6201 28.3246 20.918 28.3246C15.2158 28.3246 10.5934 23.7021 10.5934 18C10.5934 12.2979 15.2158 7.67541 20.918 7.67541C26.6201 7.67541 31.2426 12.2979 31.2426 18ZM32.918 18C32.918 24.6274 27.5454 30 20.918 30C14.2905 30 8.91797 24.6274 8.91797 18C8.91797 11.3726 14.2905 6 20.918 6C27.5454 6 32.918 11.3726 32.918 18ZM16.2483 14.8262C15.8792 14.4572 15.8792 13.8589 16.2483 13.4899C16.6173 13.1209 17.2156 13.1209 17.5846 13.4899L20.9156 16.8209L24.2441 13.4925C24.6131 13.1235 25.2114 13.1235 25.5804 13.4925C25.9494 13.8615 25.9494 14.4598 25.5804 14.8288L22.2519 18.1573L25.5114 21.4167C25.8804 21.7857 25.8804 22.384 25.5114 22.753C25.1424 23.122 24.5441 23.122 24.1751 22.753L20.9156 19.4936L17.6536 22.7556C17.2846 23.1246 16.6863 23.1246 16.3173 22.7556C15.9483 22.3866 15.9483 21.7883 16.3173 21.4193L19.5793 18.1573L16.2483 14.8262Z" fill="white"/>
</g>
<defs>
<filter id="filter0_d_776_19211" x="0.917969" y="0" width="44.082" height="44.082" filterUnits="userSpaceOnUse" color-interpolation-filters="sRGB">
<feFlood flood-opacity="0" result="BackgroundImageFix"/>
<feColorMatrix in="SourceAlpha" type="matrix" values="0 0 0 0 0 0 0 0 0 0 0 0 0 0 0 0 0 0 127 0" result="hardAlpha"/>
<feOffset dx="2" dy="4"/>
<feGaussianBlur stdDeviation="5"/>
<feComposite in2="hardAlpha" operator="out"/>
<feColorMatrix type="matrix" values="0 0 0 0 0 0 0 0 0 0 0 0 0 0 0 0 0 0 0.15 0"/>
<feBlend mode="normal" in2="BackgroundImageFix" result="effect1_dropShadow_776_19211"/>
<feBlend mode="normal" in="SourceGraphic" in2="effect1_dropShadow_776_19211" result="shape"/>
</filter>
</defs>
</svg>
