<svg width="44" height="44" viewBox="0 0 44 44" fill="none" xmlns="http://www.w3.org/2000/svg">
<g filter="url(#filter0_d_776_19289)">
<circle cx="22" cy="22" r="12" fill="#007644"/>
<path fill-rule="evenodd" clip-rule="evenodd" d="M32.3246 22C32.3246 27.7021 27.7021 32.3246 22 32.3246C16.2979 32.3246 11.6754 27.7021 11.6754 22C11.6754 16.2979 16.2979 11.6754 22 11.6754C27.7021 11.6754 32.3246 16.2979 32.3246 22ZM34 22C34 28.6274 28.6274 34 22 34C15.3726 34 10 28.6274 10 22C10 15.3726 15.3726 10 22 10C28.6274 10 34 15.3726 34 22ZM28.2354 19.028C28.5768 18.6686 28.5622 18.1005 28.2028 17.7591C27.8434 17.4177 27.2753 17.4322 26.9339 17.7916L19.9711 25.121L17.0315 22.3447C16.6711 22.0044 16.1031 22.0206 15.7627 22.381C15.4224 22.7413 15.4386 23.3094 15.799 23.6498L19.3891 27.0405C19.7488 27.3801 20.3154 27.3648 20.6561 27.0061L28.2354 19.028Z" fill="white"/>
</g>
<defs>
<filter id="filter0_d_776_19289" x="0" y="0" width="44" height="44" filterUnits="userSpaceOnUse" color-interpolation-filters="sRGB">
<feFlood flood-opacity="0" result="BackgroundImageFix"/>
<feColorMatrix in="SourceAlpha" type="matrix" values="0 0 0 0 0 0 0 0 0 0 0 0 0 0 0 0 0 0 127 0" result="hardAlpha"/>
<feOffset/>
<feGaussianBlur stdDeviation="5"/>
<feComposite in2="hardAlpha" operator="out"/>
<feColorMatrix type="matrix" values="0 0 0 0 0 0 0 0 0 0 0 0 0 0 0 0 0 0 0.1 0"/>
<feBlend mode="normal" in2="BackgroundImageFix" result="effect1_dropShadow_776_19289"/>
<feBlend mode="normal" in="SourceGraphic" in2="effect1_dropShadow_776_19289" result="shape"/>
</filter>
</defs>
</svg>
