<svg width="37" height="37" viewBox="0 0 37 37" fill="none" xmlns="http://www.w3.org/2000/svg">
<path fill-rule="evenodd" clip-rule="evenodd" d="M29.4067 7.50615C35.4548 13.5542 35.4548 23.3599 29.4067 29.4079C23.3587 35.4559 13.553 35.4559 7.50496 29.4079C1.45694 23.3599 1.45694 13.5542 7.50496 7.50615C13.553 1.45812 23.3587 1.45812 29.4067 7.50615ZM31.1838 5.72911C38.2132 12.7586 38.2132 24.1555 31.1838 31.185C24.1543 38.2144 12.7574 38.2144 5.72792 31.185C-1.30153 24.1555 -1.30153 12.7586 5.72792 5.72911C12.7574 -1.30035 24.1543 -1.30035 31.1838 5.72911ZM10.1373 20.0434C9.35449 20.0434 8.71991 19.4088 8.71991 18.626C8.71991 17.8432 9.35449 17.2086 10.1373 17.2086L17.2035 17.2086L17.2035 10.1479C17.2035 9.36506 17.8381 8.73048 18.6209 8.73048C19.4036 8.73048 20.0382 9.36506 20.0382 10.1479L20.0382 17.2086H26.9526C27.7354 17.2086 28.37 17.8432 28.37 18.626C28.37 19.4088 27.7354 20.0434 26.9526 20.0434H20.0382V26.9631C20.0382 27.7459 19.4036 28.3805 18.6209 28.3805C17.8381 28.3805 17.2035 27.7459 17.2035 26.9631L17.2035 20.0434L10.1373 20.0434Z" fill="#DDDBD9"/>
</svg>
