<svg width="30" height="30" viewBox="0 0 30 30" fill="none" xmlns="http://www.w3.org/2000/svg">
<circle cx="15" cy="15" r="15" fill="#242E39"/>
<path fill-rule="evenodd" clip-rule="evenodd" d="M16.2304 22.0781C16.0427 22.0781 15.8904 22.0198 15.7737 21.9032C15.6568 21.7867 15.5984 21.631 15.5984 21.4361V19.8311L15.213 19.8311H14.8568C14.6475 19.8358 14.5216 19.9142 14.4029 20.0117C14.2842 20.1091 14.2248 20.2591 14.2248 20.4616V22.0781H13.5009V19.235H14.2133V19.556H14.3167C14.3588 19.4413 14.4329 19.3642 14.5306 19.3106C14.6282 19.2572 14.738 19.235 14.8683 19.235L14.886 19.235H15.5984V18.3522H16.3223V19.235H17.1036V19.8311H16.3223V21.31C16.3223 21.4246 16.3759 21.4819 16.4832 21.4819H17.0347V22.0781H16.2304ZM11.6293 21.5163C11.8514 21.5163 12.0352 21.4447 12.1808 21.3014C12.3263 21.1581 12.3991 20.9527 12.3991 20.6852V20.6279C12.3991 20.3604 12.3273 20.155 12.1837 20.0117C12.0401 19.8684 11.8552 19.7967 11.6293 19.7967C11.4071 19.7967 11.2233 19.8684 11.0777 20.0117C10.9321 20.155 10.8594 20.3604 10.8594 20.6279V20.6852C10.8594 20.9527 10.9321 21.1581 11.0777 21.3014C11.2233 21.4447 11.4071 21.5163 11.6293 21.5163ZM11.6293 22.1583C11.3458 22.1583 11.0911 22.101 10.8652 21.9864C10.6392 21.8717 10.4611 21.7055 10.3309 21.4877C10.2006 21.2699 10.1356 21.0081 10.1356 20.7024V20.6107C10.1356 20.305 10.2006 20.0432 10.3309 19.8254C10.4611 19.6075 10.6392 19.4413 10.8652 19.3267C11.0911 19.2121 11.3458 19.1547 11.6293 19.1547C11.9127 19.1547 12.1674 19.2121 12.3934 19.3267C12.6193 19.4413 12.7974 19.6075 12.9277 19.8254C13.0579 20.0432 13.123 20.305 13.123 20.6107V20.7024C13.123 21.0081 13.0579 21.2699 12.9277 21.4877C12.7974 21.7055 12.6193 21.8717 12.3934 21.9864C12.1674 22.101 11.9127 22.1583 11.6293 22.1583ZM7 22.0781V19.235H7.71239V19.6076H7.81581C7.86177 19.5082 7.94793 19.4137 8.07434 19.3238C8.20072 19.2341 8.39219 19.1891 8.64883 19.1891C8.87093 19.1891 9.06536 19.2398 9.23197 19.341C9.39859 19.4423 9.52784 19.5818 9.61977 19.7595C9.71168 19.9371 9.75764 20.1445 9.75764 20.3814V22.0781H9.03376V20.4387C9.03376 20.2248 8.98107 20.0643 8.87576 19.9572C8.77038 19.8503 8.62011 19.7967 8.42477 19.7967C8.20262 19.7967 8.03026 19.8704 7.90772 20.0174C7.78511 20.1646 7.72388 20.3699 7.72388 20.6336V22.0781H7ZM19.2741 21.3014C19.1285 21.4447 18.9446 21.5163 18.7225 21.5163C18.5003 21.5163 18.3165 21.4447 18.171 21.3014C18.0254 21.1581 17.9527 20.9527 17.9527 20.6852V20.6279C17.9527 20.3604 18.0254 20.155 18.171 20.0117C18.3165 19.8684 18.5003 19.7967 18.7225 19.7967C18.9485 19.7967 19.1333 19.8684 19.2769 20.0117C19.4206 20.155 19.4924 20.3604 19.4924 20.6279V20.6852C19.4924 20.9527 19.4196 21.1581 19.2741 21.3014ZM17.9584 21.9864C18.1844 22.101 18.439 22.1583 18.7225 22.1583C19.0059 22.1583 19.2606 22.101 19.4866 21.9864C19.7126 21.8717 19.8907 21.7055 20.0209 21.4877C20.1511 21.2699 20.2163 21.0081 20.2163 20.7024V20.6107C20.2163 20.305 20.1511 20.0432 20.0209 19.8254C19.8907 19.6075 19.7126 19.4413 19.4866 19.3267C19.2606 19.2121 19.0059 19.1547 18.7225 19.1547C18.439 19.1547 18.1844 19.2121 17.9584 19.3267C17.7324 19.4413 17.5543 19.6075 17.4241 19.8254C17.2939 20.0432 17.2288 20.305 17.2288 20.6107V20.7024C17.2288 21.0081 17.2939 21.2699 17.4241 21.4877C17.5543 21.7055 17.7324 21.8717 17.9584 21.9864ZM20.5942 22.0781V19.235H21.3066V19.6076H21.41C21.4559 19.5082 21.5421 19.4137 21.6685 19.3238C21.7949 19.2341 21.9864 19.1891 22.243 19.1891C22.4651 19.1891 22.6595 19.2398 22.8261 19.341C22.9928 19.4423 23.122 19.5818 23.2139 19.7595C23.3059 19.9371 23.3518 20.1445 23.3518 20.3814V22.0781H22.6279V20.4387C22.6279 20.2248 22.5752 20.0643 22.4699 19.9572C22.3645 19.8503 22.2143 19.7967 22.0189 19.7967C21.7968 19.7967 21.6244 19.8704 21.5019 20.0174C21.3793 20.1646 21.318 20.3699 21.318 20.6336V22.0781H20.5942ZM23.6239 19.2359V19.5639H23.6861V19.2921H23.7009L23.7631 19.5639H23.8608L23.923 19.2921H23.9378V19.5639H24V19.2359H23.8815L23.8193 19.5078H23.8046L23.7424 19.2359H23.6239ZM23.4077 19.2921V19.5639H23.4699V19.2921H23.5795V19.2359H23.2981V19.2921H23.4077Z" fill="white"/>
<path fill-rule="evenodd" clip-rule="evenodd" d="M15.1761 16.8832C12.4448 16.8832 10.2231 14.6665 10.2231 11.9417C10.2231 9.2167 12.4448 7 15.1761 7C15.9309 7 16.6467 7.16916 17.2876 7.47182L16.465 8.52918C16.0638 8.37796 15.6296 8.29523 15.1761 8.29523C13.2502 8.29523 11.6678 9.78871 11.5308 11.6761C11.5281 11.7141 11.526 11.7525 11.5244 11.791C11.5223 11.841 11.5212 11.8912 11.5212 11.9417C11.5212 13.9523 13.1607 15.5879 15.1761 15.5879C17.1911 15.5879 18.8306 13.9523 18.8306 11.9417C18.8306 11.6729 18.8012 11.4107 18.7458 11.1585L19.7003 9.93173C19.9756 10.546 20.1288 11.2264 20.1288 11.9417C20.1288 14.6665 17.907 16.8832 15.1761 16.8832Z" fill="#FFE01A"/>
<path fill-rule="evenodd" clip-rule="evenodd" d="M18.2848 10.0266L15.3562 13.7905L12.967 11.6594L13.832 10.6938L15.184 11.8997L17.401 9.05071L18.1966 8.02798C18.5434 8.29497 18.8539 8.60687 19.1191 8.95475L18.2848 10.0266Z" fill="white"/>
</svg>
