<svg xmlns="http://www.w3.org/2000/svg" width="30" height="30" viewBox="0 0 30 30">
    <g fill="none" fill-rule="evenodd">
        <g>
            <g>
                <g>
                    <g transform="translate(-610 -668) translate(325 605) translate(271 43) translate(14 20)">
                        <circle cx="15" cy="15" r="15" fill="#242E39"/>
                        <g fill-rule="nonzero">
                            <g>
                                <path fill="#F3B53B" d="M8.317 9.61c-.695.692-1.618 1.073-2.599 1.073-.98 0-1.902-.38-2.597-1.072-.694-.693-1.076-1.614-1.076-2.593 0-.978.382-1.898 1.076-2.59.695-.693 1.617-1.074 2.597-1.074s1.904.381 2.599 1.073c.693.693 1.075 1.613 1.075 2.591 0 .98-.382 1.9-1.075 2.592zM5.718 1.658c-2.962 0-5.373 2.405-5.373 5.36 0 2.956 2.411 5.361 5.373 5.362 2.963 0 5.374-2.406 5.374-5.362 0-2.955-2.411-5.36-5.374-5.36zM11.572 1.251L11.991 1.251 11.991.833 11.572.833zM11.572.419L11.991.419 11.991 0 11.572 0zM10.393 1.656L10.785 1.656 10.785 1.248 10.393 1.248z" transform="translate(6 5) translate(3)"/>
                                <path fill="#FFFFFE" d="M9.617 2.439L10.012 2.439 10.012 2.05 9.617 2.05zM10.785 2.049L11.223 2.049 11.223 1.656 10.785 1.656zM9.225 2.049L9.618 2.049 9.618 1.675 9.225 1.675zM10.393 2.439L10.785 2.439 10.785 2.05 10.393 2.05zM11.158.833L11.572.833 11.572.419 11.158.419zM10.393 1.248L11.158 1.248 11.158.833 10.393.833zM10.012 2.05L10.393 2.05 10.393 1.248 10.012 1.248zM10.012 2.833h-.395v-.394h-.654v.284h-.35v.35h.391v.39h-.392v-.39h-.416v.61H7.8v.39h-.26v.392h-.288c-.323.48-1.131 1.971-1.376 2.58C4.996 5.82 4.31 5.335 3.773 5.16c-.292-.087-.642.229-.159.726C4.724 7.102 5.073 8.11 5.41 8.913c.178.424.977.49 1.138.059.341-.913.836-1.938 1.422-2.779v-.436h.313v-.393h.33v-.456h.392V4.47h-.397v-.4h.397v.4h.389l-.001-.395h.312v-.477h.35v-.329h.338V2.44h-.381v.394" transform="translate(6 5) translate(3)"/>
                            </g>
                            <g fill="#FFFFFE">
                                <path d="M14.77 3.331c-.027.132-.074.252-.14.357-.066.107-.156.193-.269.257-.112.064-.252.096-.416.096-.163 0-.302-.032-.412-.096-.11-.064-.2-.15-.266-.257-.065-.105-.112-.225-.139-.357-.027-.13-.04-.265-.04-.401s.013-.273.04-.405c.027-.134.074-.254.14-.357.066-.104.155-.19.265-.256.11-.066.249-.1.412-.1.164 0 .304.034.417.1.112.065.202.152.269.256.065.103.112.223.139.357.027.132.04.268.04.405 0 .136-.013.271-.04.401zm.433-1.671c-.15-.15-.332-.269-.544-.35-.211-.084-.451-.126-.714-.126-.261 0-.5.042-.71.125-.21.082-.391.2-.54.35-.15.151-.266.336-.347.55-.082.214-.123.457-.123.721 0 .264.041.505.123.718.08.212.198.395.347.545.149.15.33.267.54.348.21.08.449.121.71.121.263 0 .503-.04.715-.121.21-.08.394-.197.543-.348.15-.15.266-.333.347-.545.082-.213.123-.454.123-.718 0-.264-.041-.507-.123-.721-.08-.214-.198-.399-.347-.55zM18.944 1.552c-.088-.114-.21-.205-.364-.27-.155-.064-.357-.098-.6-.098-.192 0-.381.044-.564.13-.182.086-.374.225-.488.414l-.01.017c-.006.009-.013.013-.021.013-.009 0-.012-.004-.012-.013v-.47h-.818v3.302h.864V2.845c0-.35.06-.606.177-.76.121-.16.317-.24.582-.24.235 0 .403.075.497.222.09.142.137.357.137.641v1.87h.863v-2.04c0-.204-.019-.394-.055-.563-.036-.166-.1-.308-.188-.423M2.96 3.208L.931 0 0 0 0 4.586.856 4.586.856 1.363.925 1.469 2.879 4.586 3.817 4.586 3.817 0 2.96 0 2.96 3.208M6.756 3.331c-.027.132-.074.252-.14.357-.066.107-.157.193-.269.257-.112.064-.252.096-.415.096-.164 0-.303-.032-.413-.096-.11-.064-.2-.15-.266-.257-.065-.105-.112-.225-.139-.357-.027-.13-.04-.265-.04-.401s.013-.273.04-.405c.027-.134.074-.254.14-.357.066-.104.155-.19.265-.256.11-.066.249-.1.413-.1.163 0 .303.034.416.1.112.065.202.152.268.256.066.103.113.223.14.357.027.132.04.268.04.405 0 .136-.013.271-.04.401zm.433-1.671c-.15-.15-.332-.269-.544-.35-.211-.084-.452-.126-.713-.126-.262 0-.501.042-.71.125-.21.082-.392.2-.541.35-.15.151-.266.336-.347.55-.082.214-.123.457-.123.721 0 .264.041.505.122.718.082.212.198.395.348.545.149.15.33.267.54.348.21.08.449.121.71.121.262 0 .503-.04.715-.121.21-.08.394-.197.543-.348.15-.15.267-.333.347-.545.082-.213.123-.454.123-.718 0-.264-.041-.507-.123-.721-.08-.214-.198-.399-.347-.55zM11.352.284l-.864-.008-.009.957h-.224s-.41-.016-.767.115c-.22.08-.402.222-.52.435-.023.042-.044.087-.062.135-.003.01-.01.015-.02.015s-.015-.005-.015-.015v-.626h-.818v3.301h.864V3.11c0-.155.015-.3.047-.432.02-.086.05-.164.087-.236.156-.25.494-.499 1.223-.506h.198l-.018 1.925c-.002.164.024.297.077.396.053.098.126.175.218.23.094.054.205.092.329.112.127.02.263.031.405.033.09 0 .184 0 .282-.004.082-.003.16-.01.229-.02L12 3.964c-.032.005-.065.008-.1.011-.049.004-.1.006-.154.005-.17-.001-.28-.031-.34-.091s-.088-.171-.086-.34l.016-1.613H12v-.702h-.657l.009-.949M19.918 1L19.81 1.399 19.698 1 19.522 1 19.522 1.546 19.633 1.546 19.633 1.129 19.752 1.546 19.857 1.546 19.978 1.129 19.978 1.546 20.093 1.546 20.093 1 19.918 1M19 1.09L19.147 1.09 19.147 1.546 19.264 1.546 19.264 1.09 19.409 1.09 19.409 1 19 1 19 1.09" transform="translate(6 5) translate(0 14)"/>
                            </g>
                        </g>
                    </g>
                </g>
            </g>
        </g>
    </g>
</svg>
