<svg width="36" height="36" viewBox="0 0 36 36" fill="none" xmlns="http://www.w3.org/2000/svg">
<circle cx="18" cy="18" r="18" fill="#FEEB29"/>
<path fill-rule="evenodd" clip-rule="evenodd" d="M22.0632 20.7848L26.267 25.0059C26.6226 25.363 26.6108 25.9324 26.2413 26.2757C26.0673 26.4374 25.8382 26.5263 25.5966 26.5263C25.3415 26.5263 25.1033 26.4284 24.9263 26.2509L20.6906 21.9977C19.4879 22.8138 18.0812 23.2436 16.605 23.2436C12.6728 23.2436 9.47363 20.155 9.47363 16.3586C9.47363 12.5623 12.6728 9.47363 16.605 9.47363C20.5371 9.47363 23.7363 12.5623 23.7363 16.3586C23.7363 17.9835 23.1441 19.5443 22.0632 20.7848ZM21.876 16.3587C21.876 13.5526 19.5115 11.2698 16.605 11.2698C13.6985 11.2698 11.334 13.5526 11.334 16.3587C11.334 19.1648 13.6985 21.4476 16.605 21.4476C19.5115 21.4476 21.876 19.1648 21.876 16.3587Z" fill="#242424"/>
</svg>
