<svg width="13" height="13" viewBox="0 0 13 13" fill="none" xmlns="http://www.w3.org/2000/svg">
    <path d="M2.5 10.523c0-.182-.091-.273-.273-.273H.273c-.182 0-.273.091-.273.273v1.954c0 .182.091.273.273.273h1.954c.182 0 .273-.091.273-.273v-1.954zm5 0c0-.182-.091-.273-.273-.273H5.273c-.182 0-.273.091-.273.273v1.954c0 .182.091.273.273.273h1.954c.182 0 .273-.091.273-.273v-1.954zm5 0c0-.182-.091-.273-.273-.273h-1.954c-.182 0-.273.091-.273.273v1.954c0 .182.091.273.273.273h1.954c.182 0 .273-.091.273-.273v-1.954zm-10-5c0-.182-.091-.273-.273-.273H.273c-.182 0-.273.091-.273.273v1.954c0 .182.091.273.273.273h1.954c.182 0 .273-.091.273-.273V5.523zm5 0c0-.182-.091-.273-.273-.273H5.273c-.182 0-.273.091-.273.273v1.954c0 .182.091.273.273.273h1.954c.182 0 .273-.091.273-.273V5.523zm5 0c0-.182-.091-.273-.273-.273h-1.954c-.182 0-.273.091-.273.273v1.954c0 .182.091.273.273.273h1.954c.182 0 .273-.091.273-.273V5.523zm-10-5C2.5.341 2.409.25 2.227.25H.273C.091.25 0 .341 0 .523v1.954c0 .182.091.273.273.273h1.954c.182 0 .273-.091.273-.273V.523zm5 0C7.5.341 7.409.25 7.227.25H5.273C5.091.25 5 .341 5 .523v1.954c0 .182.091.273.273.273h1.954c.182 0 .273-.091.273-.273V.523zm5 0c0-.182-.091-.273-.273-.273h-1.954c-.182 0-.273.091-.273.273v1.954c0 .182.091.273.273.273h1.954c.182 0 .273-.091.273-.273V.523z" fill="#000"/>
</svg>
