<svg width="30" height="30" viewBox="0 0 30 30" fill="none" xmlns="http://www.w3.org/2000/svg">
<path fill-rule="evenodd" clip-rule="evenodd" d="M30 15.0004C30 23.2713 23.2713 30 15.0004 30C6.72874 30 0 23.2713 0 15.0004C0 6.72866 6.72874 0 15.0004 0C17.2863 0 19.4544 0.513459 21.3954 1.43221L18.9039 4.64172C17.6892 4.18275 16.3741 3.93164 15.0004 3.93164C9.16791 3.93164 4.37533 8.46503 3.96054 14.194C3.95255 14.3096 3.94613 14.4259 3.9413 14.543C3.93489 14.6946 3.93164 14.8472 3.93164 15.0004C3.93164 21.1032 8.89677 26.0684 15.0004 26.0684C21.1032 26.0684 26.0684 21.1032 26.0684 15.0004C26.0684 14.1844 25.9793 13.3884 25.8116 12.6229L28.7026 8.89915C29.5362 10.7638 30 12.8292 30 15.0004Z" fill="#FFE01A"/>
<path fill-rule="evenodd" clip-rule="evenodd" d="M26.9421 5.93356L24.4154 9.18718L15.546 20.6122L8.31018 14.1434L10.9299 11.2124L15.0244 14.8728L21.7387 6.22481L24.1482 3.12046C25.1985 3.9308 26.1389 4.87766 26.9421 5.93356Z" fill="#242424"/>
</svg>
