<svg width="30" height="30" viewBox="0 0 30 30" fill="none" xmlns="http://www.w3.org/2000/svg">
<path fill-rule="evenodd" clip-rule="evenodd" d="M30 15.0004C30 23.2713 23.2713 30 15.0004 30C6.72874 30 0 23.2713 0 15.0004C0 6.72866 6.72874 0 15.0004 0C17.2863 0 19.4544 0.513459 21.3954 1.43221L18.9039 4.64172C17.6892 4.18275 16.3741 3.93164 15.0004 3.93164C9.16791 3.93164 4.37533 8.46503 3.96054 14.194C3.95255 14.3096 3.94613 14.4259 3.9413 14.543C3.93489 14.6946 3.93164 14.8472 3.93164 15.0004C3.93164 21.1032 8.89677 26.0684 15.0004 26.0684C21.1032 26.0684 26.0684 21.1032 26.0684 15.0004C26.0684 14.1844 25.9793 13.3884 25.8116 12.6229L28.7026 8.89915C29.5362 10.7638 30 12.8292 30 15.0004Z" fill="#FFE01A"/>
<path fill-rule="evenodd" clip-rule="evenodd" d="M26.9425 5.9337L24.4158 9.18733L15.5463 20.6124L8.31055 14.1436L10.9303 11.2125L15.0248 14.8729L21.739 6.22496L24.1486 3.12061C25.1989 3.93094 26.1392 4.8778 26.9425 5.9337Z" fill="white"/>
<path fill-rule="evenodd" clip-rule="evenodd" d="M27.0372 28.4569V27.2212H27.4824L27.7163 28.2454H27.7719L28.0057 27.2212H28.451V28.4569H28.2171V27.4327H28.1616L27.9277 28.4569H27.5604L27.3266 27.4327H27.2709V28.4569H27.0372ZM26.2244 28.4569V27.4327H25.8125V27.2212H26.8701V27.4327H26.4583V28.4569H26.2244Z" fill="white"/>
</svg>
