<svg xmlns="http://www.w3.org/2000/svg" xmlns:xlink="http://www.w3.org/1999/xlink" width="20" height="20" viewBox="0 0 20 20">
    <defs>
        <path id="prefix__a" d="M8.051 20c-.503 0-.93-.362-.992-.841L6.73 16.93c-.433-.194-.851-.431-1.25-.708l-2.158.845c-.483.172-1.011-.019-1.244-.437L.135 13.357c-.245-.437-.139-.96.245-1.257l1.843-1.403c-.016-.393-.016-1.002 0-1.394L.383 7.9c-.394-.303-.499-.845-.245-1.263l1.947-3.28c.233-.417.765-.607 1.233-.428l2.165.847c.417-.286.83-.52 1.248-.708L7.06.833C7.12.36 7.548 0 8.05 0h3.9c.504 0 .93.361.992.841l.328 2.228c.432.193.85.43 1.25.707l2.158-.844c.484-.17 1.01.019 1.244.436l1.944 3.274c.245.437.14.961-.245 1.258L17.78 9.303c.017.392.017 1.001 0 1.394l1.84 1.401c.387.299.493.823.254 1.249l-1.956 3.295c-.234.417-.767.605-1.233.428l-2.165-.848c-.417.286-.829.52-1.247.708l-.33 2.237c-.06.471-.487.833-.992.833H8.051zm1.95-6.25c-2.069 0-3.751-1.682-3.751-3.75S7.932 6.25 10 6.25s3.75 1.682 3.75 3.75-1.682 3.75-3.75 3.75"/>
    </defs>
    <g fill="none" fill-rule="evenodd">
        <mask id="prefix__b" fill="#fff">
            <use xlink:href="#prefix__a"/>
        </mask>
        <g fill="#242E39" mask="url(#prefix__b)">
            <path d="M0 0H40V40H0z" transform="translate(-10 -10)"/>
        </g>
    </g>
</svg>
