<svg width="52" height="48" viewBox="0 0 52 48" fill="none" xmlns="http://www.w3.org/2000/svg">
<path fill-rule="evenodd" clip-rule="evenodd" d="M4 13.3333C4 10.3878 6.38781 8 9.33333 8H38.6667C41.6122 8 44 10.3878 44 13.3333V34.6667C44 37.612 41.6127 40 38.667 40H38C37.2636 40 36.6667 39.403 36.6667 38.6667C36.6667 37.9303 37.2636 37.3333 38 37.3333H38.667C40.1396 37.3333 41.3333 36.1396 41.3333 34.6667V13.3333C41.3333 11.8606 40.1394 10.6667 38.6667 10.6667H9.33333C7.86057 10.6667 6.66667 11.8606 6.66667 13.3333V34.6667C6.66667 36.1394 7.86057 37.3333 9.33333 37.3333H26.3333C27.0697 37.3333 27.6667 37.9303 27.6667 38.6667C27.6667 39.403 27.0697 40 26.3333 40H9.33333C6.38781 40 4 37.6122 4 34.6667V13.3333Z" fill="#242424"/>
<path fill-rule="evenodd" clip-rule="evenodd" d="M23.9421 31.8763C26.8836 32.0304 29.3931 29.7708 29.5473 26.8294C29.7014 23.8879 27.4418 21.3784 24.5004 21.2242C21.5589 21.0701 19.0494 23.3296 18.8952 26.2711C18.741 29.2126 21.0006 31.7221 23.9421 31.8763ZM23.8025 34.5393C28.2148 34.7705 31.979 31.3811 32.2103 26.9689C32.4415 22.5567 29.0521 18.7924 24.6399 18.5612C20.2277 18.33 16.4634 21.7193 16.2322 26.1316C16.001 30.5438 19.3903 34.308 23.8025 34.5393Z" fill="#242424"/>
<path fill-rule="evenodd" clip-rule="evenodd" d="M27.121 31.3506C27.7108 30.9097 28.5463 31.0305 28.9872 31.6203L35.4013 40.2018C35.8422 40.7916 35.7214 41.6271 35.1316 42.068C34.5418 42.5089 33.7062 42.3881 33.2654 41.7983L26.8512 33.2168C26.4104 32.627 26.5312 31.7914 27.121 31.3506Z" fill="#242424"/>
<path fill-rule="evenodd" clip-rule="evenodd" d="M10.6667 15.3333C10.6667 14.597 11.2637 14 12.0001 14H36.0001C36.7365 14 37.3334 14.597 37.3334 15.3333C37.3334 16.0697 36.7365 16.6667 36.0001 16.6667H12.0001C11.2637 16.6667 10.6667 16.0697 10.6667 15.3333Z" fill="#242424"/>
<circle cx="42" cy="11" r="10" fill="white"/>
<path fill-rule="evenodd" clip-rule="evenodd" d="M49.918 11C49.918 6.58171 46.3363 3 41.918 3C37.4997 3 33.918 6.58171 33.918 11C33.918 15.4183 37.4997 19 41.918 19C46.3363 19 49.918 15.4183 49.918 11ZM42.6346 10.9829C42.6346 10.5402 42.337 10.1816 41.9697 10.1816C41.6024 10.1816 41.3049 10.5402 41.3049 10.9829V14.1878C41.3049 14.6305 41.6024 14.989 41.9697 14.989C42.337 14.989 42.6346 14.6305 42.6346 14.1878V10.9829ZM41.9698 7.27682C42.3371 7.27682 42.6346 7.57434 42.6346 7.94166C42.6346 8.30899 42.3371 8.60651 41.9698 8.60651C41.6024 8.60651 41.3049 8.30899 41.3049 7.94166C41.3049 7.57434 41.6024 7.27682 41.9698 7.27682Z" fill="#0F71F0"/>
</svg>
