<svg width="48" height="48" viewBox="0 0 48 48" fill="none" xmlns="http://www.w3.org/2000/svg">
<path fill-rule="evenodd" clip-rule="evenodd" d="M20.2358 31.9529C26.6661 31.9529 31.8789 26.7401 31.8789 20.3098C31.8789 13.8795 26.6661 8.66667 20.2358 8.66667C13.8055 8.66667 8.59269 13.8795 8.59269 20.3098C8.59269 26.7401 13.8055 31.9529 20.2358 31.9529ZM20.2358 34.6195C28.1389 34.6195 34.5455 28.2128 34.5455 20.3098C34.5455 12.4067 28.1389 6 20.2358 6C12.3327 6 5.92603 12.4067 5.92603 20.3098C5.92603 28.2128 12.3327 34.6195 20.2358 34.6195Z" fill="#242424"/>
<path fill-rule="evenodd" clip-rule="evenodd" d="M29.6129 29.2794C30.1336 28.7587 30.9779 28.7587 31.4986 29.2794L40.943 38.7239C41.4637 39.2446 41.4637 40.0888 40.943 40.6095C40.4223 41.1302 39.5781 41.1302 39.0574 40.6095L29.6129 31.1651C29.0922 30.6444 29.0922 29.8001 29.6129 29.2794Z" fill="#242424"/>
<path d="M23.7962 16.5249L20.0915 15.3401C20.0846 15.3374 20.0762 15.3401 20.0679 15.3388C20.0444 15.3333 20.0222 15.3333 19.9986 15.3333C19.975 15.3333 19.9529 15.3333 19.9293 15.3388C19.9223 15.3401 19.914 15.3388 19.9071 15.3401L16.2038 16.5249C16.0818 16.5644 16 16.6748 16 16.8016V18.6462C16 21.3606 17.4752 23.9073 19.8489 25.2924C19.8503 25.2924 19.8503 25.2924 19.8516 25.2938C19.853 25.2938 19.853 25.2951 19.853 25.2951C19.8988 25.321 19.9487 25.3333 20 25.3333C20.0499 25.3333 20.1012 25.321 20.147 25.2951C20.1483 25.2951 20.1483 25.2938 20.1483 25.2938C20.1497 25.2938 20.1497 25.2938 20.1511 25.2924C22.5248 23.9073 24 21.3606 24 18.6462V16.8016C24.0014 16.6748 23.9182 16.563 23.7962 16.5249Z" fill="#242424" stroke="#242424" stroke-width="2" stroke-miterlimit="10"/>
<circle cx="34" cy="11" r="10" fill="white"/>
<path fill-rule="evenodd" clip-rule="evenodd" d="M41.918 11C41.918 6.58171 38.3363 3 33.918 3C29.4997 3 25.918 6.58171 25.918 11C25.918 15.4183 29.4997 19 33.918 19C38.3363 19 41.918 15.4183 41.918 11ZM34.6346 10.9829C34.6346 10.5402 34.337 10.1816 33.9697 10.1816C33.6024 10.1816 33.3049 10.5402 33.3049 10.9829V14.1878C33.3049 14.6305 33.6024 14.989 33.9697 14.989C34.337 14.989 34.6346 14.6305 34.6346 14.1878V10.9829ZM33.9698 7.27682C34.3371 7.27682 34.6346 7.57434 34.6346 7.94166C34.6346 8.30899 34.3371 8.60651 33.9698 8.60651C33.6024 8.60651 33.3049 8.30899 33.3049 7.94166C33.3049 7.57434 33.6024 7.27682 33.9698 7.27682Z" fill="#0F71F0"/>
</svg>
