<svg width="48" height="50" viewBox="0 0 48 50" fill="none" xmlns="http://www.w3.org/2000/svg">
<path fill-rule="evenodd" clip-rule="evenodd" d="M10.9457 9.83457L22.7239 5.94776C23.523 5.68408 24.3856 5.68408 25.1846 5.94776L36.9629 9.83457L36.1426 12.3201L24.3644 8.4333C24.0981 8.34541 23.8105 8.34541 23.5442 8.4333L11.766 12.3201C11.2297 12.4971 10.8674 13.0073 10.8674 13.572V22.4318C10.8674 32.6396 21.4096 43.6326 23.9543 43.6326C26.499 43.6326 37.0412 32.4826 37.0412 22.4318V13.5703C37.0412 13.0056 36.6789 12.4971 36.1426 12.3201L36.9629 9.83457C38.5882 10.3709 39.6586 11.8934 39.6586 13.5703V22.4318C39.6586 28.2713 36.6507 34.1213 33.5656 38.345C31.9948 40.4957 30.3171 42.3449 28.8162 43.6855C28.0696 44.3524 27.3201 44.9352 26.6106 45.3681C26.0149 45.7316 25.0412 46.25 23.9543 46.25C22.8772 46.25 21.9088 45.7428 21.3102 45.382C20.6003 44.9541 19.8502 44.3775 19.1023 43.7164C17.5993 42.3877 15.9195 40.5519 14.3465 38.4088C11.2539 34.1952 8.25 28.346 8.25 22.4318V13.572C8.25 11.8991 9.31672 10.3721 10.9457 9.83457Z" fill="#242424"/>
<path fill-rule="evenodd" clip-rule="evenodd" d="M24.6801 32.7247C27.5002 32.514 29.958 31.0038 31.4568 28.791C30.4089 29.3121 29.255 29.6598 28.0349 29.7953C27.1596 31.0007 26.0123 32.0054 24.6801 32.7247ZM25.8494 29.8084C24.9869 30.6802 23.9277 31.366 22.7414 31.798C21.2004 30.6065 20.0989 28.8991 19.712 26.9439C21.3125 28.5205 23.4573 29.5718 25.8494 29.8084ZM29.0959 27.9351C30.4884 27.5651 31.7368 26.8549 32.7411 25.9019C32.9103 25.2124 33 24.4917 33 23.75C33 21.377 32.0816 19.2186 30.5809 17.6106C29.7562 17.347 28.8752 17.2045 27.96 17.2045C27.6344 17.2045 27.3131 17.2225 26.9971 17.2576C28.7804 19.0287 29.88 21.4552 29.88 24.1318C29.88 25.4803 29.6009 26.7654 29.0959 27.9351ZM25.0186 17.7201C26.957 19.2189 28.2 21.534 28.2 24.1318C28.2 25.6212 27.7914 27.0176 27.0775 28.2205C27.0119 28.222 26.946 28.2227 26.88 28.2227C23.8014 28.2227 21.1097 26.6096 19.6471 24.2039C20.0913 21.2146 22.1948 18.7485 25.0186 17.7201ZM25.3122 15.9104C24.59 15.45 23.8034 15.0775 22.9684 14.8085C23.3069 14.7698 23.6512 14.75 24 14.75C25.3417 14.75 26.6148 15.0436 27.7586 15.57C26.9136 15.5862 26.094 15.7036 25.3122 15.9104ZM23.2855 16.6854C21.2005 17.7503 19.5454 19.5054 18.6402 21.6391C18.5351 21.1222 18.48 20.5878 18.48 20.0409C18.48 18.5516 18.8886 17.1552 19.6025 15.9522C19.6681 15.9507 19.734 15.95 19.8 15.95C21.0434 15.95 22.2238 16.2132 23.2855 16.6854ZM15 23.75C15 27.5119 17.3081 30.7347 20.5854 32.0796C18.9069 30.326 17.88 27.9729 17.88 25.3863C17.88 25.1005 17.8925 24.8175 17.9171 24.5379C17.2032 23.1906 16.8 21.6616 16.8 20.0409C16.8 19.3748 16.8681 18.7241 16.9979 18.0953C15.7484 19.6406 15 21.6079 15 23.75Z" fill="#242424"/>
<circle cx="38" cy="10" r="10" fill="white"/>
<path fill-rule="evenodd" clip-rule="evenodd" d="M45.918 10C45.918 5.58171 42.3363 2 37.918 2C33.4997 2 29.918 5.58171 29.918 10C29.918 14.4183 33.4997 18 37.918 18C42.3363 18 45.918 14.4183 45.918 10ZM38.6346 9.98287C38.6346 9.54018 38.337 9.18163 37.9697 9.18163C37.6024 9.18163 37.3049 9.54018 37.3049 9.98287V13.1878C37.3049 13.6305 37.6024 13.989 37.9697 13.989C38.337 13.989 38.6346 13.6305 38.6346 13.1878V9.98287ZM37.9698 6.27682C38.3371 6.27682 38.6346 6.57434 38.6346 6.94166C38.6346 7.30899 38.3371 7.60651 37.9698 7.60651C37.6024 7.60651 37.3049 7.30899 37.3049 6.94166C37.3049 6.57434 37.6024 6.27682 37.9698 6.27682Z" fill="#0F71F0"/>
</svg>
