<svg width="120" height="35" viewBox="0 0 120 35" fill="none" xmlns="http://www.w3.org/2000/svg">
<rect width="120" height="35" fill="white"/>
<path fill-rule="evenodd" clip-rule="evenodd" d="M76.392 23.4334C76.9382 23.9788 77.6504 24.2512 78.5283 24.2512H82.2904V21.4623H79.7107C79.2089 21.4623 78.9582 21.1942 78.9582 20.6578V13.7392H82.6129V10.9502H78.9582V6.82043H75.5724V10.9502H72.2403L72.1572 10.9503C71.5479 10.9503 71.0345 11.0541 70.5777 11.3042C70.1208 11.5548 69.7744 11.9157 69.5775 12.4519H69.0938V10.9503H65.7617V24.2512H69.1475V16.689C69.1475 15.7416 69.4251 15.0398 69.9805 14.5838C70.5356 14.128 71.1244 13.761 72.1035 13.7392H73.7695L75.5724 13.7392V21.2477C75.5724 22.1596 75.8453 22.8882 76.392 23.4334ZM59.587 20.6176C58.9061 21.288 58.0462 21.6232 57.0073 21.6232C55.9681 21.6232 55.1082 21.288 54.4276 20.6176C53.7465 19.9471 53.4065 18.9864 53.4065 17.7348V17.4666C53.4065 16.2155 53.7465 15.2543 54.4276 14.5838C55.1082 13.9134 55.9681 13.5783 57.0073 13.5783C58.0642 13.5783 58.9286 13.9134 59.6005 14.5838C60.2723 15.2543 60.6082 16.2155 60.6082 17.4666V17.7348C60.6082 18.9864 60.2676 19.9471 59.587 20.6176ZM53.4334 23.8222C54.4902 24.3585 55.6813 24.6266 57.0073 24.6266C58.3328 24.6266 59.5241 24.3585 60.5813 23.8222C61.6382 23.2858 62.4712 22.5081 63.0804 21.4891C63.6892 20.4701 63.994 19.2458 63.994 17.8152V17.3862C63.994 15.9561 63.6892 14.7313 63.0804 13.7124C62.4712 12.6933 61.6382 11.9157 60.5813 11.3794C59.5241 10.843 58.3328 10.5748 57.0073 10.5748C55.6813 10.5748 54.4902 10.843 53.4334 11.3794C52.3761 11.9157 51.5431 12.6933 50.9343 13.7124C50.325 14.7313 50.0207 15.9561 50.0207 17.3862V17.8152C50.0207 19.2458 50.325 20.4701 50.9343 21.4891C51.5431 22.5081 52.3761 23.2858 53.4334 23.8222ZM35.3545 24.2512V10.9502H38.6866V12.6933H39.1703C39.3852 12.2287 39.7884 11.7862 40.3795 11.3659C40.9708 10.9461 41.8662 10.7357 43.0667 10.7357C44.1055 10.7357 45.015 10.9729 45.7943 11.4464C46.5735 11.9203 47.1782 12.5727 47.6081 13.404C48.0381 14.2353 48.253 15.2052 48.253 16.3135V24.2512H44.8671V16.5816C44.8671 15.5807 44.6207 14.8299 44.1282 14.3291C43.6353 13.8288 42.9324 13.5783 42.0187 13.5783C40.9796 13.5783 40.1733 13.9226 39.6002 14.6106C39.0268 15.2992 38.7403 16.2599 38.7403 17.4935V24.2512H35.3545ZM113.122 12.4857V10.9438H113.679L113.971 12.2218H114.041L114.333 10.9438H114.89V12.4857H114.598V11.2077H114.528L114.236 12.4857H113.776L113.484 11.2077H113.414V12.4857H113.122ZM112.106 12.4857V11.2077H111.591V10.9438H112.913V11.2077H112.398V12.4857H112.106ZM90.185 21.6232C91.2238 21.6232 92.0837 21.288 92.7647 20.6176C93.4453 19.9471 93.7858 18.9864 93.7858 17.7348V17.4666C93.7858 16.2155 93.4499 15.2543 92.7782 14.5838C92.1063 13.9134 91.2418 13.5783 90.185 13.5783C89.1458 13.5783 88.2859 13.9134 87.6053 14.5838C86.9242 15.2543 86.5841 16.2155 86.5841 17.4666V17.7348C86.5841 18.9864 86.9242 19.9471 87.6053 20.6176C88.2859 21.288 89.1458 21.6232 90.185 21.6232ZM90.185 24.6266C88.859 24.6266 87.6679 24.3585 86.611 23.8222C85.5538 23.2858 84.7207 22.5081 84.1119 21.4891C83.5026 20.4701 83.1983 19.2458 83.1983 17.8152V17.3862C83.1983 15.9561 83.5026 14.7313 84.1119 13.7124C84.7207 12.6933 85.5538 11.9157 86.611 11.3794C87.6679 10.843 88.859 10.5748 90.185 10.5748C91.5105 10.5748 92.7017 10.843 93.7589 11.3794C94.8158 11.9157 95.6488 12.6933 96.258 13.7124C96.8668 14.7313 97.1717 15.9561 97.1717 17.3862V17.8152C97.1717 19.2458 96.8668 20.4701 96.258 21.4891C95.6488 22.5081 94.8158 23.2858 93.7589 23.8222C92.7017 24.3585 91.5105 24.6266 90.185 24.6266ZM98.9393 10.9502V24.2512H102.325V17.4935C102.325 16.2599 102.612 15.2992 103.185 14.6106C103.758 13.9226 104.564 13.5783 105.603 13.5783C106.517 13.5783 107.22 13.8288 107.713 14.3291C108.206 14.8299 108.452 15.5807 108.452 16.5816V24.2512H111.838V16.3135C111.838 15.2052 111.623 14.2353 111.193 13.404C110.763 12.5727 110.158 11.9203 109.379 11.4464C108.6 10.9729 107.69 10.7357 106.652 10.7357C105.451 10.7357 104.556 10.9461 103.964 11.3659C103.373 11.7862 102.97 12.2287 102.755 12.6933H102.271V10.9502H98.9393Z" fill="#242424"/>
<path fill-rule="evenodd" clip-rule="evenodd" d="M30.0517 17.5004C30.0517 24.3928 24.4329 30 17.5262 30C10.6189 30 5 24.3928 5 17.5004C5 10.6073 10.6189 5 17.5262 5C19.4352 5 21.2456 5.42799 22.8663 6.19356L20.7859 8.86816C19.7714 8.48575 18.6733 8.27635 17.5262 8.27635C12.6558 8.27635 8.65371 12.0542 8.30736 16.8284C8.30054 16.9247 8.29524 17.0216 8.29121 17.1192C8.28591 17.2456 8.28313 17.3727 8.28313 17.5004C8.28313 22.5862 12.4293 26.7236 17.5262 26.7236C22.6224 26.7236 26.7686 22.5862 26.7686 17.5004C26.7686 16.8204 26.6943 16.1571 26.5542 15.5192L28.9682 12.416C29.6645 13.9699 30.0517 15.6911 30.0517 17.5004Z" fill="#FFE01A"/>
<path fill-rule="evenodd" clip-rule="evenodd" d="M27.4982 9.94466L25.3883 12.656L17.9818 22.1768L11.9395 16.7862L14.1271 14.3437L17.5463 17.394L23.1531 10.1874L25.1652 7.60034C26.0423 8.27576 26.8275 9.06475 27.4982 9.94466Z" fill="#242424"/>
</svg>
