<svg width="20" height="20" viewBox="0 0 20 20" fill="none" xmlns="http://www.w3.org/2000/svg">
<path fill-rule="evenodd" clip-rule="evenodd" d="M20 10.0003C20 15.5142 15.5142 20 10.0003 20C4.48583 20 0 15.5142 0 10.0003C0 4.48578 4.48583 0 10.0003 0C11.5242 0 12.9696 0.342306 14.2636 0.954804L12.6026 3.09448C11.7928 2.7885 10.9161 2.62109 10.0003 2.62109C6.11194 2.62109 2.91689 5.64336 2.64036 9.46268C2.63503 9.5397 2.63075 9.61725 2.62753 9.69533C2.62326 9.79643 2.62109 9.89811 2.62109 10.0003C2.62109 14.0688 5.93118 17.3789 10.0003 17.3789C14.0688 17.3789 17.3789 14.0688 17.3789 10.0003C17.3789 9.45624 17.3195 8.92562 17.2078 8.41528L19.135 5.93276C19.6908 7.17587 20 8.5528 20 10.0003" fill="#FFE01A"/>
<path fill-rule="evenodd" clip-rule="evenodd" d="M17.9614 3.95572L16.277 6.1248L10.364 13.7415L5.54016 9.42898L7.28664 7.47492L10.0163 9.9152L14.4925 4.14989L16.0989 2.08032C16.799 2.62055 17.426 3.25179 17.9614 3.95572" fill="#242424"/>
<path fill-rule="evenodd" clip-rule="evenodd" d="M18.0247 18.9712V18.1473H18.3215L18.4774 18.8302H18.5145L18.6704 18.1473H18.9672V18.9712H18.8113V18.2883H18.7743L18.6184 18.9712H18.3735L18.2176 18.2883H18.1805V18.9712H18.0247ZM17.4829 18.9712V18.2883H17.2083V18.1473H17.9133V18.2883H17.6388V18.9712H17.4829Z" fill="#242424"/>
</svg>
