<svg width="16" height="16" viewBox="0 0 16 16" fill="none" xmlns="http://www.w3.org/2000/svg">
<path d="M13.5011 8.7054C13.5307 8.475 13.5529 8.2446 13.5529 7.9998C13.5529 7.755 13.5307 7.5246 13.5011 7.2942L15.0629 6.1062C15.2036 5.9982 15.2406 5.8038 15.1518 5.6454L13.6714 3.1542C13.6047 3.039 13.4789 2.9742 13.3457 2.9742C13.3013 2.9742 13.2568 2.9814 13.2198 2.9958L11.3767 3.7158C10.9918 3.4278 10.5773 3.1902 10.1258 3.0102L9.84453 1.1022C9.82233 0.929405 9.66689 0.799805 9.48184 0.799805H6.52104C6.33599 0.799805 6.18055 0.929405 6.15835 1.1022L5.87707 3.0102C5.42555 3.1902 5.01104 3.435 4.62613 3.7158L2.78304 2.9958C2.73863 2.9814 2.69422 2.9742 2.64981 2.9742C2.52397 2.9742 2.39814 3.039 2.33152 3.1542L0.851124 5.6454C0.754898 5.8038 0.79931 5.9982 0.939948 6.1062L2.50177 7.2942C2.47216 7.5246 2.44995 7.7622 2.44995 7.9998C2.44995 8.2374 2.47216 8.475 2.50177 8.7054L0.939948 9.8934C0.79931 10.0014 0.7623 10.1958 0.851124 10.3542L2.33152 12.8454C2.39814 12.9606 2.52397 13.0254 2.65721 13.0254C2.70162 13.0254 2.74603 13.0182 2.78304 13.0038L4.62613 12.2838C5.01104 12.5718 5.42555 12.8094 5.87707 12.9894L6.15835 14.8974C6.18055 15.0702 6.33599 15.1998 6.52104 15.1998H9.48184C9.66689 15.1998 9.82233 15.0702 9.84453 14.8974L10.1258 12.9894C10.5773 12.8094 10.9918 12.5646 11.3767 12.2838L13.2198 13.0038C13.2642 13.0182 13.3087 13.0254 13.3531 13.0254C13.4789 13.0254 13.6047 12.9606 13.6714 12.8454L15.1518 10.3542C15.2406 10.1958 15.2036 10.0014 15.0629 9.8934L13.5011 8.7054ZM12.0355 7.4742C12.0651 7.6974 12.0725 7.8486 12.0725 7.9998C12.0725 8.151 12.0577 8.3094 12.0355 8.5254L11.9319 9.339L12.5907 9.843L13.3901 10.4478L12.8719 11.319L11.9319 10.9518L11.1621 10.6494L10.4959 11.139C10.1776 11.3694 9.87414 11.5422 9.57066 11.6646L8.78605 11.9742L8.66762 12.7878L8.51958 13.7598H7.4833L7.34266 12.7878L7.22423 11.9742L6.43962 11.6646C6.12134 11.535 5.82526 11.3694 5.52918 11.1534L4.8556 10.6494L4.07099 10.959L3.13093 11.3262L2.6128 10.455L3.41221 9.8502L4.07099 9.3462L3.96736 8.5326C3.94515 8.3094 3.93035 8.1438 3.93035 7.9998C3.93035 7.8558 3.94515 7.6902 3.96736 7.4742L4.07099 6.6606L3.41221 6.1566L2.6128 5.5518L3.13093 4.6806L4.07099 5.0478L4.84079 5.3502L5.50697 4.8606C5.82526 4.6302 6.12874 4.4574 6.43222 4.335L7.21683 4.0254L7.33526 3.2118L7.4833 2.2398H8.51218L8.65281 3.2118L8.77125 4.0254L9.55586 4.335C9.87414 4.4646 10.1702 4.6302 10.4663 4.8462L11.1399 5.3502L11.9245 5.0406L12.8645 4.6734L13.3827 5.5446L12.5907 6.1566L11.9319 6.6606L12.0355 7.4742ZM8.00144 5.1198C6.3656 5.1198 5.04065 6.4086 5.04065 7.9998C5.04065 9.591 6.3656 10.8798 8.00144 10.8798C9.63728 10.8798 10.9622 9.591 10.9622 7.9998C10.9622 6.4086 9.63728 5.1198 8.00144 5.1198ZM8.00144 9.4398C7.18722 9.4398 6.52104 8.7918 6.52104 7.9998C6.52104 7.2078 7.18722 6.5598 8.00144 6.5598C8.81566 6.5598 9.48184 7.2078 9.48184 7.9998C9.48184 8.7918 8.81566 9.4398 8.00144 9.4398Z" fill="white"/>
</svg>
