<?xml version="1.0" encoding="utf-8"?>
<!-- Generator: Adobe Illustrator 24.0.0, SVG Export Plug-In . SVG Version: 6.00 Build 0)  -->
<svg version="1.1" id="Layer_1" xmlns="http://www.w3.org/2000/svg" xmlns:xlink="http://www.w3.org/1999/xlink" x="0px" y="0px"
	 viewBox="0 0 50 50" style="enable-background:new 0 0 50 50;" xml:space="preserve">
<style type="text/css">
	.st0{fill:#FFFFFF;}
	.st1{fill:none;stroke:#153D6C;stroke-width:5;}
	.st2{fill:#242E39;}
	.st3{fill:#555555;stroke:#FFFFFF;stroke-width:0.75;}
</style>
<circle class="st0" cx="25" cy="25" r="22"/>
<circle class="st1" cx="25" cy="25" r="22"/>
<path class="st2" d="M34.8,27.6L32.6,26c0-0.3,0.1-0.6,0.1-1s0-0.7-0.1-1l2.2-1.7c0.2-0.1,0.3-0.4,0.1-0.6l-2.1-3.5
	C32.7,18,32.5,18,32.2,18l-2.6,1c-0.5-0.4-1.1-0.7-1.7-1l-0.4-2.6c0-0.2-0.3-0.4-0.5-0.4h-4.1c-0.3,0-0.5,0.2-0.5,0.4L22,18.1
	c-0.6,0.3-1.2,0.6-1.7,1l-2.6-1c-0.2-0.1-0.5,0-0.6,0.2l-2.1,3.5c-0.1,0.2-0.1,0.5,0.1,0.6l2.2,1.7c0,0.3-0.1,0.6-0.1,1s0,0.7,0.1,1
	l-2.2,1.7c-0.2,0.2-0.3,0.4-0.1,0.6l2.1,3.5c0.1,0.2,0.4,0.3,0.6,0.2l2.6-1c0.5,0.4,1.1,0.7,1.7,1l0.4,2.6c0,0.2,0.3,0.4,0.5,0.4
	h4.1c0.3,0,0.5-0.2,0.5-0.4l0.4-2.6c0.6-0.3,1.2-0.6,1.7-1l2.6,1c0.2,0.1,0.5,0,0.6-0.2l2.1-3.5C35.1,28.1,35,27.8,34.8,27.6z
	 M25,28.5c-2,0-3.6-1.6-3.6-3.5s1.6-3.5,3.6-3.5s3.6,1.6,3.6,3.5S27,28.5,25,28.5z"/>
<path class="st3" d="M45.5,41.9l-9.8-6.8c-0.3-0.2-0.8,0.1-0.7,0.5l2,11.4c0,0.3,0.3,0.4,0.5,0.4c0.1,0,0.2-0.1,0.3-0.2l1.9-2.4
	l2.7,4.1c0,0.1,0.1,0.1,0.2,0.1c0,0,0.1,0,0.1,0c0,0,0.1,0,0.1,0l1.8-1.2c0.1-0.1,0.2-0.3,0.1-0.4l-2.6-3.9l3.1-0.6
	c0.3,0,0.4-0.3,0.4-0.5C45.7,42.1,45.7,42,45.5,41.9z"/>
</svg>
