<svg width="18" height="18" viewBox="0 0 18 18" fill="none" xmlns="http://www.w3.org/2000/svg">
<path d="M15.1889 9.79419C15.2222 9.53499 15.2472 9.27579 15.2472 9.00039C15.2472 8.72499 15.2222 8.46579 15.1889 8.20659L16.946 6.87009C17.1042 6.74859 17.1458 6.52989 17.0459 6.35169L15.3804 3.54909C15.3055 3.41949 15.1639 3.34659 15.014 3.34659C14.9641 3.34659 14.9141 3.35469 14.8725 3.37089L12.799 4.18089C12.366 3.85689 11.8996 3.58959 11.3917 3.38709L11.0753 1.24059C11.0503 1.04619 10.8754 0.900391 10.6672 0.900391H7.33633C7.12815 0.900391 6.95327 1.04619 6.92829 1.24059L6.61186 3.38709C6.1039 3.58959 5.63757 3.86499 5.20456 4.18089L3.13107 3.37089C3.08111 3.35469 3.03115 3.34659 2.98118 3.34659C2.83962 3.34659 2.69806 3.41949 2.62311 3.54909L0.957667 6.35169C0.849413 6.52989 0.899376 6.74859 1.05759 6.87009L2.81464 8.20659C2.78133 8.46579 2.75635 8.73309 2.75635 9.00039C2.75635 9.26769 2.78133 9.53499 2.81464 9.79419L1.05759 11.1307C0.899376 11.2522 0.85774 11.4709 0.957667 11.6491L2.62311 14.4517C2.69806 14.5813 2.83962 14.6542 2.98951 14.6542C3.03947 14.6542 3.08944 14.6461 3.13107 14.6299L5.20456 13.8199C5.63757 14.1439 6.1039 14.4112 6.61186 14.6137L6.92829 16.7602C6.95327 16.9546 7.12815 17.1004 7.33633 17.1004H10.6672C10.8754 17.1004 11.0503 16.9546 11.0753 16.7602L11.3917 14.6137C11.8996 14.4112 12.366 14.1358 12.799 13.8199L14.8725 14.6299C14.9224 14.6461 14.9724 14.6542 15.0224 14.6542C15.1639 14.6542 15.3055 14.5813 15.3804 14.4517L17.0459 11.6491C17.1458 11.4709 17.1042 11.2522 16.946 11.1307L15.1889 9.79419ZM13.5401 8.40909C13.5734 8.66019 13.5817 8.83029 13.5817 9.00039C13.5817 9.17049 13.5651 9.34869 13.5401 9.59169L13.4235 10.507L14.1647 11.074L15.064 11.7544L14.4811 12.7345L13.4235 12.3214L12.5575 11.9812L11.808 12.532C11.45 12.7912 11.1086 12.9856 10.7671 13.1233L9.88446 13.4716L9.75122 14.3869L9.58468 15.4804H8.41887L8.26065 14.3869L8.12741 13.4716L7.24473 13.1233C6.88666 12.9775 6.55357 12.7912 6.22048 12.5482L5.4627 11.9812L4.58001 12.3295L3.52245 12.7426L2.93955 11.7625L3.83889 11.0821L4.58001 10.5151L4.46343 9.59979C4.43845 9.34869 4.4218 9.16239 4.4218 9.00039C4.4218 8.83839 4.43845 8.65209 4.46343 8.40909L4.58001 7.49379L3.83889 6.92679L2.93955 6.24639L3.52245 5.26629L4.58001 5.67939L5.44604 6.01959L6.1955 5.46879C6.55357 5.20959 6.89498 5.01519 7.2364 4.87749L8.11909 4.52919L8.25232 3.61389L8.41887 2.52039H9.57635L9.73457 3.61389L9.8678 4.52919L10.7505 4.87749C11.1086 5.02329 11.4417 5.20959 11.7747 5.45259L12.5325 6.01959L13.4152 5.67129L14.4728 5.25819L15.0557 6.23829L14.1647 6.92679L13.4235 7.49379L13.5401 8.40909ZM9.00177 5.76039C7.16145 5.76039 5.67088 7.21029 5.67088 9.00039C5.67088 10.7905 7.16145 12.2404 9.00177 12.2404C10.8421 12.2404 12.3327 10.7905 12.3327 9.00039C12.3327 7.21029 10.8421 5.76039 9.00177 5.76039ZM9.00177 10.6204C8.08578 10.6204 7.33633 9.89139 7.33633 9.00039C7.33633 8.10939 8.08578 7.38039 9.00177 7.38039C9.91777 7.38039 10.6672 8.10939 10.6672 9.00039C10.6672 9.89139 9.91777 10.6204 9.00177 10.6204Z" fill="#242424"/>
</svg>
