<svg width="22" height="22" viewBox="0 0 22 22" fill="none" xmlns="http://www.w3.org/2000/svg">
<path d="M21.3261 9.6745C21.9678 9.08825 21.6076 8.01888 20.742 7.94031L14.372 7.36211L11.9281 1.30165C11.5915 0.466726 10.4093 0.467036 10.0731 1.30213L7.628 7.37474L1.26555 7.94294C0.398692 8.02035 0.0376165 9.09146 0.680696 9.67788L5.552 14.12L4.1054 20.6473C3.91277 21.5165 4.86652 22.1852 5.61796 21.7078L11 18.2884L16.3857 21.7101C17.1367 22.1872 18.09 21.5198 17.8986 20.6509L16.46 14.12L21.3261 9.6745ZM11 15.9263L6.488 18.7937L7.688 13.3874L3.704 9.74947L8.96 9.26947L11 4.17895L13.052 9.28211L18.308 9.76211L14.324 13.4L15.524 18.8063L11 15.9263Z" fill="white"/>
</svg>
