<svg width="20" height="18" viewBox="0 0 20 18" fill="none" xmlns="http://www.w3.org/2000/svg">
<mask id="mask0_2314_2378" style="mask-type:alpha" maskUnits="userSpaceOnUse" x="0" y="0" width="20" height="18">
<path d="M17.4865 0.666504H2.60464C1.46717 0.666504 0.566681 1.61439 0.566681 2.70446V15.4535C0.566681 16.591 1.46717 17.4915 2.60464 17.4915H17.4865C18.6239 17.4915 19.5244 16.591 19.5244 15.4535V2.70446C19.5244 1.61439 18.6239 0.666504 17.4865 0.666504ZM6.01703 2.4201C6.06443 2.3727 6.11182 2.32531 6.20661 2.32531C6.34879 2.27791 6.49098 2.27791 6.58576 2.32531C6.63316 2.3727 6.72795 2.3727 6.77534 2.4201C6.87013 2.51488 6.91753 2.65707 6.91753 2.79925C6.91753 2.84664 6.91753 2.94143 6.87013 2.98883C6.82274 3.03622 6.82274 3.13101 6.72795 3.17841C6.68055 3.2258 6.63316 3.27319 6.53837 3.27319C6.49098 3.32059 6.39619 3.32059 6.34879 3.32059C6.3014 3.32059 6.20661 3.32059 6.15922 3.27319C6.11182 3.27319 6.01703 3.2258 5.96964 3.17841C5.92224 3.13101 5.87485 3.08362 5.82746 2.98883C5.78006 2.94143 5.78006 2.84664 5.78006 2.79925C5.87485 2.65707 5.92224 2.51488 6.01703 2.4201ZM4.07386 2.56228C4.12126 2.51488 4.16865 2.46749 4.21605 2.4201C4.26344 2.3727 4.31084 2.32531 4.35823 2.32531C4.54781 2.23052 4.78478 2.27791 4.92696 2.4201C5.02175 2.51488 5.06915 2.65707 5.06915 2.79925C5.06915 2.84664 5.06915 2.94143 5.02175 2.98883C5.02175 3.03622 4.97436 3.13101 4.92696 3.17841C4.87957 3.2258 4.83217 3.27319 4.73738 3.27319C4.68999 3.32059 4.5952 3.32059 4.54781 3.32059C4.50041 3.32059 4.40562 3.32059 4.35823 3.27319C4.31084 3.27319 4.21605 3.2258 4.16865 3.17841C4.16865 3.13101 4.12126 3.03622 4.07386 2.98883C4.07386 2.94143 4.02647 2.84664 4.02647 2.79925C4.02647 2.70446 4.07386 2.65707 4.07386 2.56228ZM2.41506 2.4201C2.46246 2.3727 2.50985 2.32531 2.60464 2.32531C2.74682 2.27791 2.889 2.27791 2.98379 2.32531C3.03119 2.3727 3.12598 2.3727 3.17337 2.4201C3.17337 2.46749 3.22077 2.51488 3.26816 2.56228C3.31555 2.60967 3.31555 2.70446 3.31555 2.75186C3.31555 2.79925 3.31555 2.89404 3.26816 2.94143C3.22077 3.03622 3.17337 3.13101 3.12598 3.17841C3.03119 3.27319 2.889 3.32059 2.74682 3.32059C2.69943 3.32059 2.60464 3.32059 2.55724 3.27319C2.50985 3.2258 2.46246 3.2258 2.41506 3.17841C2.36767 3.13101 2.32027 3.03622 2.27288 2.98883C2.27288 2.94143 2.22548 2.84664 2.22548 2.79925C2.22548 2.65707 2.27288 2.51488 2.41506 2.4201ZM18.1026 14.79C18.1026 15.5009 17.5339 16.1171 16.7756 16.1171H3.31555C2.60464 16.0697 1.98851 15.5009 1.98851 14.79V6.21164C1.98851 5.50073 2.55724 4.8846 3.31555 4.8846H16.7756C17.4865 4.8846 18.1026 5.45333 18.1026 6.21164V14.79Z" fill="white"/>
</mask>
<g mask="url(#mask0_2314_2378)">
<rect x="-44.9321" y="-44.0195" width="108.33" height="108.33" rx="16.2495" fill="white"/>
</g>
</svg>
