<svg width="18" height="16" viewBox="0 0 18 16" fill="none" xmlns="http://www.w3.org/2000/svg">
<path d="M15.925 0H2.075C1.52468 0 0.996891 0.218615 0.607753 0.607753C0.218615 0.996891 0 1.52468 0 2.075L0 13.735C0 14.2853 0.218615 14.8131 0.607753 15.2022C0.996891 15.5914 1.52468 15.81 2.075 15.81H15.925C16.4753 15.81 17.0031 15.5914 17.3922 15.2022C17.7814 14.8131 18 14.2853 18 13.735V2.075C18 1.52468 17.7814 0.996891 17.3922 0.607753C17.0031 0.218615 16.4753 0 15.925 0V0ZM1.5 2.075C1.5 1.99949 1.51487 1.92472 1.54377 1.85496C1.57267 1.78519 1.61502 1.72181 1.66841 1.66841C1.77625 1.56058 1.9225 1.5 2.075 1.5H15.925C16.0005 1.5 16.0753 1.51487 16.145 1.54377C16.2148 1.57267 16.2782 1.61502 16.3316 1.66841C16.385 1.72181 16.4273 1.78519 16.4562 1.85496C16.4851 1.92472 16.5 1.99949 16.5 2.075V6.5L13.42 3.305C13.2805 3.16155 13.0901 3.07891 12.89 3.075C12.6912 3.07518 12.5005 3.15431 12.36 3.295L8.22 7.42L6.5 5.63C6.36422 5.49189 6.18056 5.41123 5.98699 5.40472C5.79343 5.3982 5.60476 5.46633 5.46 5.595L1.5 9.135V2.075ZM16.5 13.735C16.4987 13.8871 16.4377 14.0326 16.3301 14.1401C16.2226 14.2477 16.0771 14.3087 15.925 14.31H2.075C1.9229 14.3087 1.77741 14.2477 1.66986 14.1401C1.56231 14.0326 1.50131 13.8871 1.5 13.735V11.145L5.91 7.195L7.3 8.635L8.035 9.395L9.915 11.335C10.0536 11.4789 10.2436 11.5618 10.4434 11.5656C10.6431 11.5693 10.8361 11.4936 10.98 11.355C11.1239 11.2164 11.2068 11.0264 11.2106 10.8266C11.2143 10.6269 11.1386 10.4339 11 10.29L9.26 8.5L12.875 4.9L16.5 8.64V13.735Z" fill="white"/>
</svg>
