<svg width="4" height="14" viewBox="0 0 4 14" fill="none" xmlns="http://www.w3.org/2000/svg">
<path fill-rule="evenodd" clip-rule="evenodd" d="M1.8889 10.333C0.972229 10.333 0.222229 11.083 0.222229 11.9997C0.222229 12.9163 0.972229 13.6663 1.8889 13.6663C2.80556 13.6663 3.55556 12.9163 3.55556 11.9997C3.55556 11.083 2.80556 10.333 1.8889 10.333ZM1.8889 5.33301C0.972229 5.33301 0.222229 6.08301 0.222229 6.99967C0.222229 7.91634 0.972229 8.66634 1.8889 8.66634C2.80556 8.66634 3.55556 7.91634 3.55556 6.99967C3.55556 6.08301 2.80556 5.33301 1.8889 5.33301ZM1.8889 3.66634C2.80556 3.66634 3.55556 2.91634 3.55556 1.99967C3.55556 1.08301 2.80556 0.333008 1.8889 0.333008C0.972229 0.333008 0.222229 1.08301 0.222229 1.99967C0.222229 2.91634 0.972229 3.66634 1.8889 3.66634Z" fill="#555551"/>
</svg>
