<svg width="209" height="18" viewBox="0 0 209 18" fill="none" xmlns="http://www.w3.org/2000/svg">
<path fill-rule="evenodd" clip-rule="evenodd" d="M44.4765 11.5121L42.1661 10.1541L41.9944 10.4201C41.4678 11.2386 40.748 11.6539 39.8561 11.6531C38.3282 11.6524 37.1762 10.5117 37.177 8.99977C37.1782 7.48825 38.3309 6.34909 39.8592 6.34985C40.7638 6.35061 41.4432 6.7435 41.9979 7.58742L42.1703 7.8496L44.4915 6.48854L44.291 6.20128C43.1821 4.61224 41.7328 3.83976 39.8607 3.83862C36.3216 3.8371 34.4103 6.49538 34.4092 8.99787C34.4076 11.5007 36.3155 14.1617 39.8546 14.1636C41.6579 14.1643 43.3591 13.2573 44.2952 11.7956L44.4765 11.5121Z" fill="#C01818"/>
<path fill-rule="evenodd" clip-rule="evenodd" d="M50.9223 5.88219L52.2152 9.09371L49.6114 9.09181L50.9223 5.88219ZM44.3608 14.1651L47.555 14.167L48.5041 11.8313L53.2981 11.8336L54.2445 14.1704L57.4525 14.1723L51.7302 0.483087L48.8809 0.481567L49.6395 2.29631L44.3608 14.1651Z" fill="#C01818"/>
<path fill-rule="evenodd" clip-rule="evenodd" d="M58.7751 14.1735L61.5783 14.1751L61.5818 8.0313L63.4093 8.03282L63.4108 5.45547L61.5833 5.45433L61.5837 4.23615C61.5837 3.71331 61.9378 3.15817 62.5935 3.15855C62.9538 3.15893 63.1712 3.21972 63.3882 3.31168L63.7001 3.44467L64.8647 0.929637L64.529 0.793987C64.0081 0.582723 63.2826 0.506729 62.7767 0.506349C61.5053 0.505589 60.4579 0.916718 59.7458 1.6949C59.1243 2.37429 58.7817 3.31928 58.7809 4.35508L58.7801 5.45243L57.5426 5.45205L57.541 8.02978L58.779 8.03016L58.7751 14.1735Z" fill="#C01818"/>
<path fill-rule="evenodd" clip-rule="evenodd" d="M21.1943 0.403076V14.1527L24.2399 14.1546L24.2445 6.29377L27.1963 8.46949L30.1508 6.29377V14.158L33.1921 14.1596L33.1998 0.403076L27.1986 4.88902L21.1943 0.403076Z" fill="#C01818"/>
<path fill-rule="evenodd" clip-rule="evenodd" d="M67.2771 7.75971C67.6431 6.82194 68.4329 6.2744 69.453 6.27478C70.484 6.27516 71.2886 6.81168 71.7154 7.76199L67.2771 7.75971ZM69.722 3.88513C66.1941 3.88323 64.2882 6.53467 64.2866 9.02956C64.2855 11.5252 66.1879 14.1778 69.7163 14.1797H69.7178H69.7201C71.338 14.1626 72.8552 13.433 74.0297 12.118L71.7436 10.8842C71.1574 11.4781 70.4457 11.7904 69.6598 11.7901C68.5087 11.7893 67.4877 11.0301 67.2208 10.0376L74.8444 10.0418L74.8448 9.35672C74.8471 5.58474 71.8507 3.88665 69.722 3.88513Z" fill="#C01818"/>
<path fill-rule="evenodd" clip-rule="evenodd" d="M78.7361 7.76719C79.1018 6.82905 79.8911 6.28151 80.9117 6.28189C81.943 6.28265 82.7477 6.81879 83.1744 7.76947L78.7361 7.76719ZM81.1806 3.89246C77.6523 3.89056 75.7471 6.54162 75.7456 9.03651C75.7441 11.5322 77.6461 14.1847 81.1753 14.187H81.1768H81.1783C82.7969 14.1695 84.3141 13.44 85.4883 12.1249L83.2022 10.8915C82.6156 11.4854 81.9043 11.7978 81.1188 11.7974C79.9673 11.7966 78.9463 11.0374 78.6798 10.0449L86.303 10.0487L86.3038 9.36404C86.3061 5.59207 83.3093 3.8936 81.1806 3.89246Z" fill="#C01818"/>
<path fill-rule="evenodd" clip-rule="evenodd" d="M85.9453 3.35657H87.1322V3.57581H86.6659V4.80654H86.4097V3.57581H85.9453V3.35657Z" fill="#C01818"/>
<path fill-rule="evenodd" clip-rule="evenodd" d="M87.4707 3.35657H87.8318L88.2362 4.49192H88.2404L88.6345 3.35657H88.9917V4.80654H88.7475V3.68752H88.7432L88.3372 4.80654H88.1256L87.7188 3.68752H87.715V4.80654H87.4707V3.35657Z" fill="#C01818"/>
<path fill-rule="evenodd" clip-rule="evenodd" d="M3.34075 12.1317V5.16456L7.78365 7.19702V3.83542L0.254883 0.391357V14.0802L7.78365 17.5273V14.1653L3.34075 12.1317Z" fill="#C01818"/>
<path fill-rule="evenodd" clip-rule="evenodd" d="M12.2266 12.1316V5.16443L7.78369 7.1969V3.83529L15.3125 0.391235V14.0801L7.78369 17.5272V14.1652L12.2266 12.1316Z" fill="#C01818"/>
<path d="M94.2875 2.18481V15.8152" stroke="#C01818" stroke-linecap="square"/>
<path d="M107.444 9.63477C107.444 10.5996 107.264 11.4062 106.905 12.0547C106.545 12.6992 106.024 13.1855 105.34 13.5137C104.657 13.8379 103.833 14 102.868 14H100.489V5.43359H103.125C104.012 5.43359 104.778 5.59375 105.422 5.91406C106.067 6.23047 106.565 6.70117 106.917 7.32617C107.268 7.94727 107.444 8.7168 107.444 9.63477ZM105.979 9.67578C105.979 8.97266 105.868 8.39453 105.645 7.94141C105.426 7.48828 105.102 7.15234 104.672 6.93359C104.247 6.71094 103.721 6.59961 103.096 6.59961H101.895V12.8223H102.891C103.926 12.8223 104.7 12.5586 105.211 12.0312C105.723 11.5039 105.979 10.7188 105.979 9.67578ZM111.733 7.39062C112.311 7.39062 112.807 7.50977 113.221 7.74805C113.635 7.98633 113.954 8.32422 114.176 8.76172C114.399 9.19922 114.51 9.72266 114.51 10.332V11.0703H110.18C110.196 11.6992 110.364 12.1836 110.684 12.5234C111.008 12.8633 111.461 13.0332 112.043 13.0332C112.458 13.0332 112.829 12.9941 113.157 12.916C113.489 12.834 113.831 12.7148 114.182 12.5586V13.6777C113.858 13.8301 113.528 13.9414 113.192 14.0117C112.856 14.082 112.454 14.1172 111.985 14.1172C111.348 14.1172 110.788 13.9941 110.303 13.748C109.823 13.498 109.446 13.127 109.172 12.6348C108.903 12.1426 108.768 11.5312 108.768 10.8008C108.768 10.0742 108.891 9.45703 109.137 8.94922C109.383 8.44141 109.729 8.05469 110.174 7.78906C110.62 7.52344 111.139 7.39062 111.733 7.39062ZM111.733 8.42773C111.299 8.42773 110.948 8.56836 110.678 8.84961C110.413 9.13086 110.256 9.54297 110.209 10.0859H113.163C113.159 9.76172 113.104 9.47461 112.999 9.22461C112.897 8.97461 112.741 8.7793 112.53 8.63867C112.323 8.49805 112.057 8.42773 111.733 8.42773ZM118.647 7.39062C119.225 7.39062 119.721 7.50977 120.135 7.74805C120.549 7.98633 120.868 8.32422 121.09 8.76172C121.313 9.19922 121.424 9.72266 121.424 10.332V11.0703H117.094C117.11 11.6992 117.278 12.1836 117.598 12.5234C117.922 12.8633 118.375 13.0332 118.958 13.0332C119.372 13.0332 119.743 12.9941 120.071 12.916C120.403 12.834 120.745 12.7148 121.096 12.5586V13.6777C120.772 13.8301 120.442 13.9414 120.106 14.0117C119.77 14.082 119.368 14.1172 118.899 14.1172C118.262 14.1172 117.702 13.9941 117.217 13.748C116.737 13.498 116.36 13.127 116.086 12.6348C115.817 12.1426 115.682 11.5312 115.682 10.8008C115.682 10.0742 115.805 9.45703 116.051 8.94922C116.297 8.44141 116.643 8.05469 117.088 7.78906C117.534 7.52344 118.053 7.39062 118.647 7.39062ZM118.647 8.42773C118.213 8.42773 117.862 8.56836 117.592 8.84961C117.327 9.13086 117.17 9.54297 117.124 10.0859H120.077C120.073 9.76172 120.018 9.47461 119.913 9.22461C119.811 8.97461 119.655 8.7793 119.444 8.63867C119.237 8.49805 118.971 8.42773 118.647 8.42773ZM126.305 7.39062C127.075 7.39062 127.692 7.67188 128.157 8.23438C128.625 8.79688 128.86 9.63281 128.86 10.7422C128.86 11.4766 128.75 12.0957 128.532 12.5996C128.317 13.0996 128.014 13.4785 127.624 13.7363C127.237 13.9902 126.786 14.1172 126.27 14.1172C125.942 14.1172 125.657 14.0742 125.415 13.9883C125.172 13.9023 124.965 13.791 124.793 13.6543C124.622 13.5137 124.477 13.3613 124.36 13.1973H124.278C124.297 13.3535 124.315 13.5273 124.331 13.7188C124.35 13.9062 124.36 14.0781 124.36 14.2344V16.877H122.977V7.51367H124.102L124.295 8.41016H124.36C124.481 8.22656 124.627 8.05664 124.799 7.90039C124.975 7.74414 125.186 7.62109 125.432 7.53125C125.682 7.4375 125.973 7.39062 126.305 7.39062ZM125.936 8.51562C125.557 8.51562 125.252 8.5918 125.022 8.74414C124.795 8.89258 124.629 9.11719 124.524 9.41797C124.422 9.71875 124.368 10.0957 124.36 10.5488V10.7422C124.36 11.2227 124.409 11.6309 124.506 11.9668C124.608 12.2988 124.774 12.5527 125.004 12.7285C125.239 12.9004 125.555 12.9863 125.954 12.9863C126.29 12.9863 126.567 12.8945 126.786 12.7109C127.008 12.5273 127.174 12.2656 127.284 11.9258C127.393 11.5859 127.448 11.1855 127.448 10.7246C127.448 10.0254 127.323 9.48242 127.073 9.0957C126.827 8.70898 126.448 8.51562 125.936 8.51562ZM133.694 8.5625H132.118V14H130.741V8.5625H129.68V7.90039L130.741 7.49609V7.04492C130.741 6.49414 130.827 6.05664 130.999 5.73242C131.174 5.4082 131.424 5.17578 131.749 5.03516C132.077 4.89062 132.467 4.81836 132.92 4.81836C133.217 4.81836 133.489 4.84375 133.735 4.89453C133.981 4.94141 134.188 4.99609 134.356 5.05859L133.999 6.10156C133.866 6.05859 133.717 6.01953 133.553 5.98438C133.389 5.94531 133.213 5.92578 133.026 5.92578C132.713 5.92578 132.483 6.02344 132.334 6.21875C132.19 6.41406 132.118 6.69922 132.118 7.07422V7.51367H133.694V8.5625ZM137.344 7.39062C138.165 7.39062 138.784 7.57227 139.202 7.93555C139.624 8.29883 139.834 8.86523 139.834 9.63477V14H138.856L138.592 13.0801H138.545C138.362 13.3145 138.172 13.5078 137.977 13.6602C137.782 13.8125 137.555 13.9258 137.297 14C137.043 14.0781 136.733 14.1172 136.366 14.1172C135.979 14.1172 135.633 14.0469 135.329 13.9062C135.024 13.7617 134.784 13.543 134.608 13.25C134.432 12.957 134.344 12.5859 134.344 12.1367C134.344 11.4688 134.592 10.9668 135.088 10.6309C135.588 10.2949 136.342 10.1094 137.35 10.0742L138.475 10.0332V9.69336C138.475 9.24414 138.37 8.92383 138.159 8.73242C137.952 8.54102 137.659 8.44531 137.28 8.44531C136.956 8.44531 136.641 8.49219 136.336 8.58594C136.032 8.67969 135.735 8.79492 135.446 8.93164L135 7.95898C135.317 7.79102 135.676 7.6543 136.079 7.54883C136.485 7.44336 136.907 7.39062 137.344 7.39062ZM138.469 10.9004L137.631 10.9297C136.944 10.9531 136.461 11.0703 136.184 11.2812C135.907 11.4922 135.768 11.7812 135.768 12.1484C135.768 12.4688 135.864 12.7031 136.055 12.8516C136.247 12.9961 136.499 13.0684 136.811 13.0684C137.288 13.0684 137.682 12.9336 137.995 12.6641C138.311 12.3906 138.469 11.9902 138.469 11.4629V10.9004ZM143.139 4.88281V9.28906C143.139 9.48828 143.131 9.70703 143.116 9.94531C143.1 10.1797 143.084 10.4004 143.069 10.6074H143.098C143.2 10.4707 143.321 10.3105 143.461 10.127C143.606 9.94336 143.743 9.7832 143.872 9.64648L145.852 7.51367H147.434L144.838 10.3027L147.604 14H145.987L143.913 11.1523L143.139 11.8145V14H141.762V4.88281H143.139ZM151.225 7.39062C151.803 7.39062 152.299 7.50977 152.713 7.74805C153.127 7.98633 153.446 8.32422 153.668 8.76172C153.891 9.19922 154.002 9.72266 154.002 10.332V11.0703H149.672C149.688 11.6992 149.856 12.1836 150.176 12.5234C150.5 12.8633 150.954 13.0332 151.536 13.0332C151.95 13.0332 152.321 12.9941 152.649 12.916C152.981 12.834 153.323 12.7148 153.674 12.5586V13.6777C153.35 13.8301 153.02 13.9414 152.684 14.0117C152.348 14.082 151.946 14.1172 151.477 14.1172C150.84 14.1172 150.28 13.9941 149.795 13.748C149.315 13.498 148.938 13.127 148.665 12.6348C148.395 12.1426 148.26 11.5312 148.26 10.8008C148.26 10.0742 148.383 9.45703 148.629 8.94922C148.875 8.44141 149.221 8.05469 149.667 7.78906C150.112 7.52344 150.631 7.39062 151.225 7.39062ZM151.225 8.42773C150.792 8.42773 150.44 8.56836 150.17 8.84961C149.905 9.13086 149.749 9.54297 149.702 10.0859H152.655C152.651 9.76172 152.596 9.47461 152.491 9.22461C152.389 8.97461 152.233 8.7793 152.022 8.63867C151.815 8.49805 151.549 8.42773 151.225 8.42773ZM165.768 9.63477C165.768 10.5996 165.588 11.4062 165.229 12.0547C164.87 12.6992 164.348 13.1855 163.665 13.5137C162.981 13.8379 162.157 14 161.192 14H158.813V5.43359H161.45C162.336 5.43359 163.102 5.59375 163.747 5.91406C164.391 6.23047 164.889 6.70117 165.241 7.32617C165.592 7.94727 165.768 8.7168 165.768 9.63477ZM164.303 9.67578C164.303 8.97266 164.192 8.39453 163.969 7.94141C163.75 7.48828 163.426 7.15234 162.997 6.93359C162.571 6.71094 162.045 6.59961 161.42 6.59961H160.219V12.8223H161.215C162.25 12.8223 163.024 12.5586 163.536 12.0312C164.047 11.5039 164.303 10.7188 164.303 9.67578ZM170.057 7.39062C170.635 7.39062 171.131 7.50977 171.545 7.74805C171.959 7.98633 172.278 8.32422 172.5 8.76172C172.723 9.19922 172.834 9.72266 172.834 10.332V11.0703H168.504C168.52 11.6992 168.688 12.1836 169.008 12.5234C169.333 12.8633 169.786 13.0332 170.368 13.0332C170.782 13.0332 171.153 12.9941 171.481 12.916C171.813 12.834 172.155 12.7148 172.506 12.5586V13.6777C172.182 13.8301 171.852 13.9414 171.516 14.0117C171.18 14.082 170.778 14.1172 170.309 14.1172C169.672 14.1172 169.112 13.9941 168.627 13.748C168.147 13.498 167.77 13.127 167.497 12.6348C167.227 12.1426 167.092 11.5312 167.092 10.8008C167.092 10.0742 167.215 9.45703 167.461 8.94922C167.708 8.44141 168.053 8.05469 168.499 7.78906C168.944 7.52344 169.463 7.39062 170.057 7.39062ZM170.057 8.42773C169.624 8.42773 169.272 8.56836 169.002 8.84961C168.737 9.13086 168.581 9.54297 168.534 10.0859H171.487C171.483 9.76172 171.428 9.47461 171.323 9.22461C171.221 8.97461 171.065 8.7793 170.854 8.63867C170.647 8.49805 170.381 8.42773 170.057 8.42773ZM176.801 13.0039C176.981 13.0039 177.159 12.9883 177.334 12.957C177.51 12.9219 177.67 12.8809 177.815 12.834V13.877C177.663 13.9434 177.465 14 177.223 14.0469C176.981 14.0938 176.729 14.1172 176.467 14.1172C176.1 14.1172 175.77 14.0566 175.477 13.9355C175.184 13.8105 174.952 13.5977 174.78 13.2969C174.608 12.9961 174.522 12.5801 174.522 12.0488V8.5625H173.637V7.94727L174.586 7.46094L175.038 6.07227H175.905V7.51367H177.762V8.5625H175.905V12.0312C175.905 12.3594 175.987 12.6035 176.151 12.7637C176.315 12.9238 176.532 13.0039 176.801 13.0039ZM181.717 7.39062C182.295 7.39062 182.792 7.50977 183.206 7.74805C183.62 7.98633 183.938 8.32422 184.161 8.76172C184.383 9.19922 184.495 9.72266 184.495 10.332V11.0703H180.165C180.18 11.6992 180.348 12.1836 180.668 12.5234C180.993 12.8633 181.446 13.0332 182.028 13.0332C182.442 13.0332 182.813 12.9941 183.141 12.916C183.473 12.834 183.815 12.7148 184.167 12.5586V13.6777C183.842 13.8301 183.512 13.9414 183.176 14.0117C182.84 14.082 182.438 14.1172 181.969 14.1172C181.333 14.1172 180.772 13.9941 180.288 13.748C179.807 13.498 179.43 13.127 179.157 12.6348C178.887 12.1426 178.752 11.5312 178.752 10.8008C178.752 10.0742 178.875 9.45703 179.122 8.94922C179.368 8.44141 179.713 8.05469 180.159 7.78906C180.604 7.52344 181.124 7.39062 181.717 7.39062ZM181.717 8.42773C181.284 8.42773 180.932 8.56836 180.663 8.84961C180.397 9.13086 180.241 9.54297 180.194 10.0859H183.147C183.143 9.76172 183.088 9.47461 182.983 9.22461C182.881 8.97461 182.725 8.7793 182.514 8.63867C182.307 8.49805 182.042 8.42773 181.717 8.42773ZM188.661 14.1172C188.047 14.1172 187.516 13.998 187.067 13.7598C186.618 13.5215 186.272 13.1562 186.03 12.6641C185.788 12.1719 185.667 11.5469 185.667 10.7891C185.667 10 185.799 9.35547 186.065 8.85547C186.331 8.35547 186.698 7.98633 187.167 7.74805C187.639 7.50977 188.18 7.39062 188.79 7.39062C189.176 7.39062 189.526 7.42969 189.838 7.50781C190.155 7.58203 190.422 7.67383 190.641 7.7832L190.231 8.88477C189.993 8.78711 189.749 8.70508 189.499 8.63867C189.249 8.57227 189.008 8.53906 188.778 8.53906C188.399 8.53906 188.083 8.62305 187.829 8.79102C187.579 8.95898 187.391 9.20898 187.266 9.54102C187.145 9.87305 187.084 10.2852 187.084 10.7773C187.084 11.2539 187.147 11.6562 187.272 11.9844C187.397 12.3086 187.583 12.5547 187.829 12.7227C188.075 12.8867 188.377 12.9688 188.737 12.9688C189.092 12.9688 189.411 12.9258 189.692 12.8398C189.973 12.7539 190.239 12.6426 190.489 12.5059V13.7012C190.243 13.8418 189.979 13.9453 189.698 14.0117C189.417 14.082 189.071 14.1172 188.661 14.1172ZM194.426 13.0039C194.606 13.0039 194.784 12.9883 194.959 12.957C195.135 12.9219 195.295 12.8809 195.44 12.834V13.877C195.288 13.9434 195.09 14 194.848 14.0469C194.606 14.0938 194.354 14.1172 194.092 14.1172C193.725 14.1172 193.395 14.0566 193.102 13.9355C192.809 13.8105 192.577 13.5977 192.405 13.2969C192.233 12.9961 192.147 12.5801 192.147 12.0488V8.5625H191.262V7.94727L192.211 7.46094L192.663 6.07227H193.53V7.51367H195.387V8.5625H193.53V12.0312C193.53 12.3594 193.612 12.6035 193.776 12.7637C193.94 12.9238 194.157 13.0039 194.426 13.0039ZM202.5 10.7422C202.5 11.2812 202.43 11.7598 202.29 12.1777C202.149 12.5957 201.944 12.9492 201.674 13.2383C201.405 13.5234 201.081 13.7422 200.702 13.8945C200.323 14.043 199.895 14.1172 199.418 14.1172C198.973 14.1172 198.565 14.043 198.194 13.8945C197.823 13.7422 197.5 13.5234 197.227 13.2383C196.958 12.9492 196.749 12.5957 196.6 12.1777C196.452 11.7598 196.377 11.2812 196.377 10.7422C196.377 10.0273 196.5 9.42188 196.747 8.92578C196.997 8.42578 197.352 8.04492 197.813 7.7832C198.274 7.52148 198.823 7.39062 199.459 7.39062C200.057 7.39062 200.584 7.52148 201.042 7.7832C201.499 8.04492 201.856 8.42578 202.114 8.92578C202.372 9.42578 202.5 10.0312 202.5 10.7422ZM197.795 10.7422C197.795 11.2148 197.852 11.6191 197.965 11.9551C198.083 12.291 198.262 12.5488 198.504 12.7285C198.747 12.9043 199.059 12.9922 199.442 12.9922C199.825 12.9922 200.137 12.9043 200.379 12.7285C200.622 12.5488 200.799 12.291 200.913 11.9551C201.026 11.6191 201.083 11.2148 201.083 10.7422C201.083 10.2695 201.026 9.86914 200.913 9.54102C200.799 9.20898 200.622 8.95703 200.379 8.78516C200.137 8.60938 199.823 8.52148 199.436 8.52148C198.866 8.52148 198.45 8.71289 198.188 9.0957C197.926 9.47852 197.795 10.0273 197.795 10.7422ZM207.37 7.39062C207.479 7.39062 207.598 7.39648 207.727 7.4082C207.856 7.41992 207.967 7.43555 208.061 7.45508L207.932 8.74414C207.85 8.7207 207.749 8.70312 207.627 8.69141C207.51 8.67969 207.405 8.67383 207.311 8.67383C207.065 8.67383 206.831 8.71484 206.608 8.79688C206.385 8.875 206.188 8.99609 206.016 9.16016C205.844 9.32031 205.709 9.52148 205.612 9.76367C205.514 10.0059 205.465 10.2871 205.465 10.6074V14H204.083V7.51367H205.161L205.348 8.65625H205.413C205.542 8.42578 205.702 8.21484 205.893 8.02344C206.084 7.83203 206.303 7.67969 206.549 7.56641C206.799 7.44922 207.073 7.39062 207.37 7.39062Z" fill="#C01818"/>
</svg>
